<svg width="32" height="32" viewBox="0 0 32 32" fill="none" xmlns="http://www.w3.org/2000/svg">
<rect width="32" height="32" rx="16" fill="#2563EB"/>
<path d="M18.7778 16C18.7778 15.4396 18.6149 14.8918 18.3096 14.4259C18.0044 13.9599 17.5706 13.5968 17.063 13.3823C16.5554 13.1679 15.9969 13.1118 15.4581 13.2211C14.9192 13.3304 14.4243 13.6003 14.0358 13.9965C13.6473 14.3928 13.3828 14.8976 13.2756 15.4472C13.1684 15.9969 13.2234 16.5665 13.4337 17.0843C13.6439 17.602 13.9999 18.0445 14.4567 18.3558C14.9136 18.6672 15.4506 18.8333 16 18.8333C16.7367 18.8333 17.4433 18.5348 17.9642 18.0035C18.4851 17.4721 18.7778 16.7514 18.7778 16ZM14.3333 16C14.3333 15.6638 14.4311 15.3351 14.6142 15.0555C14.7974 14.776 15.0577 14.5581 15.3622 14.4294C15.6667 14.3007 16.0018 14.2671 16.3252 14.3327C16.6485 14.3983 16.9454 14.5602 17.1785 14.7979C17.4116 15.0357 17.5703 15.3386 17.6346 15.6683C17.699 15.9981 17.6659 16.3399 17.5398 16.6506C17.4137 16.9612 17.2 17.2267 16.926 17.4135C16.6519 17.6003 16.3296 17.7 16 17.7C15.558 17.7 15.134 17.5209 14.8215 17.2021C14.5089 16.8833 14.3333 16.4509 14.3333 16ZM21 23.9333V8.06667C21 7.91638 20.9415 7.77224 20.8373 7.66597C20.7331 7.5597 20.5918 7.5 20.4444 7.5H11.5556C11.4082 7.5 11.2669 7.5597 11.1627 7.66597C11.0585 7.77224 11 7.91638 11 8.06667L11 23.9333C11 24.0836 11.0585 24.2278 11.1627 24.334C11.2669 24.4403 11.4082 24.5 11.5556 24.5H20.4444C20.5918 24.5 20.7331 24.4403 20.8373 24.334C20.9415 24.2278 21 24.0836 21 23.9333ZM12.1111 20.6502V11.3498C12.7419 11.1595 13.3161 10.8113 13.7812 10.3369C14.2464 9.8624 14.5878 9.27678 14.7743 8.63333H17.2257C17.4122 9.27678 17.7536 9.8624 18.2188 10.3369C18.6839 10.8113 19.2581 11.1595 19.8889 11.3498V20.6502C19.2581 20.8405 18.6839 21.1887 18.2188 21.6631C17.7536 22.1376 17.4122 22.7232 17.2257 23.3667H14.7743C14.5878 22.7232 14.2464 22.1376 13.7812 21.6631C13.3161 21.1887 12.7419 20.8405 12.1111 20.6502ZM18.4049 23.3667C18.6914 22.687 19.2225 22.1452 19.8889 21.853V23.3667H18.4049ZM19.8889 10.147C19.2225 9.85478 18.6914 9.31302 18.4049 8.63333H19.8889V10.147ZM13.5951 8.63333C13.3086 9.31302 12.7775 9.85478 12.1111 10.147V8.63333H13.5951ZM12.1111 21.853C12.7775 22.1452 13.3086 22.687 13.5951 23.3667H12.1111L12.1111 21.853Z" fill="white"/>
</svg>
